<svg xmlns="http://www.w3.org/2000/svg" version="1.1" viewBox="-5.0 -10.0 110.0 135.0">
 <path d="m81.375 42.188h-26.688v-26.562c0-0.875 0.6875-1.5625 1.5625-1.5625s1.5625 0.6875 1.5625 1.5625v6.25c0 0.875 0.6875 1.5625 1.5625 1.5625h6.25c0.875 0 1.5625-0.6875 1.5625-1.5625v-6.25c0-6.0312-4.9062-10.938-10.938-10.938s-10.938 4.9062-10.938 10.938v26.562h-6.25v-3.125h1.5625c0.875 0 1.5625-0.6875 1.5625-1.5625s-0.6875-1.5625-1.5625-1.5625h-12.5c-0.875 0-1.5625 0.6875-1.5625 1.5625s0.6875 1.5625 1.5625 1.5625h1.5625v3.125h-11.062c-2.5 0-4.5625 2.0312-4.5625 4.8125 0 2.5 2.0312 4.5625 4.5625 4.5625h1.75c0.6875 23.719 16.531 27.688 24.938 28.094v3.1562h-1.5625c-0.875 0-1.5625 0.6875-1.5625 1.5625s0.6875 1.5625 1.5625 1.5625h1.5625v4.6875c0 2.5938 2.0938 4.6875 4.6875 4.6875s4.6875-2.0938 4.6875-4.6875v-4.6875h1.5625c0.875 0 1.5625-0.6875 1.5625-1.5625s-0.6875-1.5625-1.5625-1.5625h-1.5625v-3.125c4.2188-0.03125 9.9062-0.4375 14.875-3.7812 6.4375-4.3125 9.7812-12.531 10.062-24.344h1.75c2.5 0 4.5625-2.0312 4.5625-4.8125 0-2.5312-2.0312-4.5625-4.5625-4.5625zm-32.938-26.562c0-4.3125 3.5-7.8125 7.8125-7.8125s7.8125 3.5 7.8125 7.8125v4.6875h-3.125v-4.6875c0-2.5938-2.0938-4.6875-4.6875-4.6875s-4.6875 2.0938-4.6875 4.6875v26.562h-3.125zm-15.625 23.438h3.125v3.125h-3.125zm18.75 51.562c0 0.875-0.6875 1.5625-1.5625 1.5625s-1.5625-0.6875-1.5625-1.5625v-4.6875h3.125zm-3.125-7.8125v-3.125h3.125v3.125zm19.406-9.5c-4.8438 3.25-10.781 3.25-14.719 3.25h-6.25c-10.438 0-22.75-4.4375-23.375-25h53c-0.25 10.688-3.1562 18.031-8.6562 21.75zm13.531-24.875h-62.75c-0.78125 0-1.4375-0.65625-1.4375-1.6875 0-0.78125 0.65625-1.4375 1.4375-1.4375h62.75c0.78125 0 1.4375 0.65625 1.4375 1.6875 0 0.78125-0.65625 1.4375-1.4375 1.4375z"/>
<text x="0.0" y="117.5" font-size="5.0" font-weight="bold" font-family="Arbeit Regular, Helvetica, Arial-Unicode, Arial, Sans-serif" fill="#000000">Created by Nendra Wahyu Kuncoro</text><text x="0.0" y="122.5" font-size="5.0" font-weight="bold" font-family="Arbeit Regular, Helvetica, Arial-Unicode, Arial, Sans-serif" fill="#000000">from Noun Project</text></svg>
